<svg xmlns="http://www.w3.org/2000/svg" xmlns:xlink="http://www.w3.org/1999/xlink" viewBox="0,0,256,256" width="100px" height="100px" fill-rule="nonzero"><g transform="translate(6.4,6.4) scale(0.95,0.95)"><g fill="none" fill-rule="nonzero" stroke="none" stroke-width="none" stroke-linecap="butt" stroke-linejoin="none" stroke-miterlimit="10" stroke-dasharray="" stroke-dashoffset="0" font-family="none" font-weight="none" font-size="none" text-anchor="none" style="mix-blend-mode: normal"><path transform="scale(5.12,5.12)" d="M13.99023,7.89063c0,2.98 -2.52023,5.09961 -5.99023,5.09961c-3.41,0 -5.99023,-2.17101 -5.99023,-5.04102c0,-2.86 2.52023,-4.93945 5.99023,-4.93945c3.36,0 5.83023,2.01086 5.99023,4.88086zM13,15c0.55,0 1,0.45 1,1v29c0,0.55 -0.45,1 -1,1h-10c-0.55,0 -1,-0.45 -1,-1v-29c0,-0.55 0.45,-1 1,-1zM28,15c0.55,0 1,0.45 1,1v1.49023c1.61,-1.13 4.26906,-2.49023 7.78906,-2.49023c7.74,0 11.21094,6.53 11.21094,13v17c0,0.55 -0.45,1 -1,1h-9c-0.552,0 -1,-0.448 -1,-1v-15.5c0,-2.37 -1.82062,-4.30047 -4.14062,-4.48047c-0.12,-0.02 -0.23938,-0.01953 -0.35937,-0.01953c-0.12,0 -0.23938,-0.00047 -0.35937,0.01953c-2.32,0.18 -4.14062,2.11047 -4.14062,4.48047v15.5c0,0.552 -0.448,1 -1,1h-9c-0.55,0 -1,-0.45 -1,-1v-29c0,-0.55 0.45,-1 1,-1z" id="strokeMainSVG" fill="#ffffff" stroke="#ffffff" stroke-width="5" stroke-linejoin="round"></path><g transform="scale(5.12,5.12)" fill="#343434" stroke="none" stroke-width="1" stroke-linejoin="miter"><path d="M8,3.00977c-3.47,0 -5.99023,2.07945 -5.99023,4.93945c0,2.87 2.58023,5.04102 5.99023,5.04102c3.47,0 5.99023,-2.11961 5.99023,-5.09961c-0.16,-2.87 -2.63023,-4.88086 -5.99023,-4.88086zM3,15c-0.55,0 -1,0.45 -1,1v29c0,0.55 0.45,1 1,1h10c0.55,0 1,-0.45 1,-1v-29c0,-0.55 -0.45,-1 -1,-1zM18,15c-0.55,0 -1,0.45 -1,1v29c0,0.55 0.45,1 1,1h9c0.552,0 1,-0.448 1,-1v-15v-0.25v-0.25c0,-2.37 1.82062,-4.30047 4.14063,-4.48047c0.12,-0.02 0.23938,-0.01953 0.35938,-0.01953c0.12,0 0.23938,-0.00047 0.35938,0.01953c2.32,0.18 4.14063,2.11047 4.14063,4.48047v15.5c0,0.552 0.448,1 1,1h9c0.55,0 1,-0.45 1,-1v-17c0,-6.47 -3.47094,-13 -11.21094,-13c-3.52,0 -6.17906,1.36023 -7.78906,2.49023v-1.49023c0,-0.55 -0.45,-1 -1,-1z"></path></g></g></g></svg>