<?xml version="1.0" encoding="UTF-8"?>
<!-- Generated by Pixelmator Pro 3.2.3 -->
<svg width="500" height="140" viewBox="0 0 500 140" xmlns="http://www.w3.org/2000/svg" xmlns:xlink="http://www.w3.org/1999/xlink">
    <g id="Group">
        <g id="g1">
            <path id="Path" fill="none" stroke="none" d="M 246.718811 -159 C 206.948792 -157.950012 169.261093 -148.547791 137.871109 -130.757813 C 148.3311 -134.947815 165.0961 -138.082001 179.746094 -138.082001 C 180.776093 -138.112 181.792511 -138.121094 182.8125 -138.121094 C 222.392502 -138.121094 257.670807 -118.423004 277.050812 -86.792999 C 297.980804 -53.303009 300 -12.490021 300 21 C 300 100.529999 342.983826 121 384.843781 121 C 429.843781 121 470.000122 73.314209 470.000122 28.324188 C 468.950134 -69.005798 349.2789 -159 246.718903 -159 Z M 252.402313 -138.882813 C 340.292297 -135.642792 449.070007 -58.235809 450 28.324188 C 450 64.324219 417.113678 101 384.843781 101 C 340.60379 101 320.000122 75.580002 320.000122 21 C 320.000122 -18.899994 316.841705 -60.862213 294.101685 -97.242188 C 283.521698 -114.512207 269.212494 -128.612793 252.402496 -138.882813 Z M 158.242203 -119 C 141.332199 -119 124.259995 -115.132813 110 -107.632813 C 53.48 -77.662781 20.769999 -0.470001 20 71 C 19.59 109.369995 27.566099 147.577789 44.746098 179.007813 C 63.586102 214.587799 89.757698 242.82869 120.097702 262.718719 C 112.7677 255.388702 102.300499 241.782593 94.980499 229.222626 C 75.100494 193.642593 77.190498 152.849289 94.980499 119.359299 C 113.820496 83.779297 149.762497 59.80542 179.0625 44.105408 C 249.172501 7.475403 247.091599 -43.795807 230.351593 -80.425903 C 218.271606 -106.595886 188.522202 -119.000092 158.242203 -119.000092 Z M 158.242203 -99 C 178.302185 -99 203.008499 -91.925507 212.148499 -72.105499 C 230.848511 -31.205505 216.609009 1.948212 169.628998 26.488312 C 124.448997 50.698303 94.244301 77.994904 77.324303 109.964905 C 67.664299 128.154907 62.252403 147.6996 61.152401 167.269608 C 47.112396 140.549591 39.620098 106.554901 40.000099 71.214905 C 40.760101 0.684906 73.406502 -65.577911 119.316498 -89.917908 C 130.446503 -95.777893 144.262299 -98.999908 158.24231 -98.999908 Z M 476.933594 79.593811 C 473.79361 90.053802 468.560486 105.744705 461.230499 118.304703 C 441.350525 152.834717 405.775482 175.863281 368.105499 175.863281 C 327.295502 175.863281 288.806885 157.7939 260.546906 140.003906 C 239.406891 126.693893 218.578003 121 199.667999 121 C 168.027985 121 141.791397 136.956711 128.691391 159.886719 C 106.711395 197.556702 128.706497 256.153625 168.476593 279.183594 C 190.0466 291.843567 220.193008 301 246.542999 301 C 322.492981 301 408.266907 253.426682 445.546906 187.386719 C 465.42691 153.896698 475.893585 116.223694 476.933594 79.593689 Z M 199.667999 141 C 216.208008 141 233.112396 146.367508 249.902405 156.9375 C 290.932404 182.777496 330.705505 195.863281 368.105499 195.863281 C 388.525513 195.863281 408.552521 190.32782 426.5625 180.257813 C 392.432526 237.877777 315.673004 281 246.542999 281 C 224.972992 281 198.316101 273.528931 178.496094 261.878906 C 161.806107 252.218903 148.009995 233.274399 142.5 212.484406 C 138.210007 196.274384 139.444199 181.16861 146.074203 169.808594 C 156.224197 152.038589 176.757904 141 199.667999 141 Z"/>
        </g>
    </g>
    <g id="g2">
        <path id="strokeMainSVG" fill="#ffffff" stroke="#ffffff" stroke-width="20" stroke-linecap="round" stroke-linejoin="round" d="M 34.003906 57.181641 L 27.148438 55.873047 L 27.148438 48.119141 L 45.917969 48.119141 L 46.445313 54.408203 C 47.96875 52.129547 49.882813 50.365234 52.1875 49.115234 C 54.47916 47.878265 57.13541 47.259766 60.15625 47.259766 C 63.203125 47.259766 65.807281 47.930328 67.96875 49.271484 C 70.143219 50.625641 71.783852 52.663422 72.890625 55.384766 C 74.361969 52.832672 76.269531 50.840485 78.613281 49.408203 C 80.957031 47.975922 83.710938 47.259766 86.875 47.259766 C 91.5625 47.259766 95.260414 48.874359 97.96875 52.103516 C 100.677086 55.345703 102.03125 60.274078 102.03125 66.888672 L 102.03125 86.673813 L 108.222656 87.982437 L 108.222656 95.677719 L 83.671875 95.677719 L 83.671875 87.982437 L 89.199219 86.673813 L 89.199219 66.849609 C 89.199219 63.242828 88.613281 60.736328 87.441406 59.330078 C 86.269531 57.923828 84.524742 57.220703 82.207031 57.220703 C 80.397125 57.220703 78.828125 57.624359 77.5 58.431641 C 76.158844 59.238922 75.091156 60.358734 74.296875 61.791016 C 74.296875 62.350922 74.316406 62.826172 74.355469 63.216797 C 74.3815 63.620453 74.394531 64.024078 74.394531 64.427734 L 74.394531 86.673813 L 79.570313 87.982437 L 79.570313 95.677719 L 56.425781 95.677719 L 56.425781 87.982437 L 61.601563 86.673813 L 61.601563 66.849609 C 61.601563 63.333984 61.015625 60.853516 59.84375 59.408203 C 58.671875 57.94986 56.914063 57.220703 54.570313 57.220703 C 52.851563 57.220703 51.334629 57.552734 50.019531 58.216797 C 48.717442 58.867828 47.643223 59.798828 46.796875 61.009766 L 46.796875 86.673813 L 52.324219 87.982437 L 52.324219 95.677719 L 27.8125 95.677719 L 27.8125 87.982437 L 34.003906 86.673813 Z M 112.714844 72.298813 C 112.714844 64.798828 114.348961 58.750641 117.617188 54.154297 C 120.885406 49.557953 125.46225 47.259766 131.347656 47.259766 C 134.016937 47.259766 136.360687 47.852203 138.378906 49.037109 C 140.397125 50.222015 142.122406 51.908203 143.554688 54.095703 L 144.492188 48.119141 L 155.644531 48.119141 L 155.644531 94.271469 C 155.644531 100.534515 153.678375 105.534515 149.746094 109.271484 C 145.800781 113.008453 140.384125 114.876953 133.496094 114.876953 C 131.10025 114.876953 128.554688 114.551422 125.859383 113.900391 C 123.164063 113.236328 120.670563 112.331375 118.378906 111.185547 L 120.761719 102.181641 C 122.806 103.067062 124.856781 103.763657 126.91407 104.271484 C 128.958344 104.779297 131.126312 105.033203 133.417969 105.033203 C 136.542969 105.033203 138.886719 104.082657 140.449219 102.181641 C 141.998688 100.280609 142.773438 97.630844 142.773438 94.232437 L 142.773438 91.107422 C 141.367188 92.891266 139.713547 94.251953 137.8125 95.189438 C 135.898438 96.126968 133.710938 96.595688 131.25 96.595688 C 125.429688 96.595688 120.885406 94.453766 117.617188 90.169922 C 114.348961 85.873062 112.714844 80.222 112.714844 73.216782 Z M 125.546875 73.216782 C 125.546875 77.383453 126.25 80.658218 127.65625 83.041 C 129.0625 85.436844 131.347656 86.634781 134.511719 86.634781 C 136.477875 86.634781 138.138031 86.270172 139.492188 85.541031 C 140.859375 84.824844 141.953125 83.776703 142.773438 82.3965 L 142.773438 61.751953 C 141.953125 60.319672 140.859375 59.20639 139.492188 58.412109 C 138.138031 57.617828 136.503906 57.220703 134.589844 57.220703 C 131.464844 57.220703 129.173187 58.613922 127.714844 61.400391 C 126.269531 64.186859 125.546875 67.819672 125.546875 72.298813 Z M 168.828125 36.166016 L 161.972656 34.857422 L 161.972656 27.123047 L 181.621094 27.123047 L 181.621094 66.849609 L 184.472656 66.849609 L 191.855469 56.439453 L 187.675781 55.873047 L 187.675781 48.119141 L 211.054688 48.119141 L 211.054688 55.873047 L 205.429688 57.142578 L 196.875 68.919922 L 208.867188 86.986328 L 213.75 87.982437 L 213.75 95.677719 L 191.777344 95.677719 L 191.777344 87.982437 L 194.414063 87.55275 L 187.109375 75.775406 L 181.621094 75.775406 L 181.621094 86.673813 L 187.148438 87.982437 L 187.148438 95.677719 L 162.636719 95.677719 L 162.636719 87.982437 L 168.828125 86.673813 Z M 257.03125 64.466797 L 248.417969 64.466797 L 247.050781 58.548828 C 246.178375 57.845703 245.071625 57.259766 243.730469 56.791016 C 242.402344 56.322266 240.930984 56.087891 239.316406 56.087891 C 237.063812 56.087891 235.279953 56.589203 233.964844 57.591797 C 232.636719 58.607422 231.972656 59.876953 231.972656 61.400391 C 231.972656 62.832672 232.604156 64.024078 233.867188 64.974609 C 235.130219 65.92514 237.649734 66.771484 241.425781 67.513672 C 247.311188 68.685547 251.679688 70.404297 254.531265 72.669907 C 257.369781 74.948563 258.789063 78.073578 258.789063 82.044922 C 258.789063 86.328766 256.953125 89.824875 253.281235 92.533188 C 249.596344 95.241531 244.752594 96.595688 238.75 96.595688 C 235.091156 96.595688 231.731766 96.061844 228.671875 94.994141 C 225.598969 93.926422 222.877594 92.396484 220.507813 90.404297 L 220.371094 79.720703 L 229.335938 79.720703 L 231.113281 85.931656 C 231.868484 86.569656 232.903656 87.044922 234.21875 87.357422 C 235.546875 87.656906 236.927094 87.806625 238.359375 87.806625 C 240.963531 87.806625 242.949219 87.337906 244.316406 86.400375 C 245.670578 85.462891 246.347656 84.193375 246.347656 82.591797 C 246.347656 81.185547 245.664063 79.968109 244.296875 78.939453 C 242.916656 77.910797 240.377609 76.999359 236.679688 76.205063 C 231.080719 75.059219 226.855469 73.366547 224.003906 71.126953 C 221.152344 68.88736 219.726563 65.833984 219.726563 61.966797 C 219.726563 57.982422 221.367188 54.551422 224.648438 51.673828 C 227.929688 48.783203 232.597656 47.337891 238.652344 47.337891 C 242.35025 47.337891 245.846344 47.832672 249.140625 48.822266 C 252.434906 49.82486 255.019547 51.100922 256.894531 52.650391 Z M 289.023438 101.166031 L 262.304688 31.693359 L 274.960938 31.693359 L 301.679688 101.166031 Z M 317.753906 84.427734 L 317.753906 95.677719 L 304.980469 95.677719 L 304.980469 84.427734 Z M 356.914063 95.677719 L 355.957031 89.876938 C 354.459656 92.077484 352.695313 93.744156 350.664063 94.876968 C 348.619781 96.022812 346.295563 96.595688 343.691406 96.595688 C 337.832031 96.595688 333.28125 94.460297 330.039063 90.189453 C 326.809906 85.905609 325.195313 80.248047 325.195313 73.216782 L 325.195313 72.298813 C 325.195313 64.798828 326.822906 58.750641 330.078125 54.154297 C 333.320313 49.557953 337.890625 47.259766 343.789063 47.259766 C 346.158875 47.259766 348.294281 47.774078 350.195313 48.802734 C 352.096344 49.844391 353.769531 51.315765 355.214844 53.216797 L 355.214844 36.166016 L 348.359375 34.857422 L 348.359375 27.123047 L 368.046875 27.123047 L 368.046875 86.673813 L 374.199219 87.982437 L 374.199219 95.677719 Z M 338.027344 73.216782 C 338.027344 77.383453 338.723969 80.658218 340.117188 83.041 C 341.510406 85.436844 343.789063 86.634781 346.953125 86.634781 C 348.828125 86.634781 350.449219 86.250656 351.816406 85.482407 C 353.196625 84.714188 354.329437 83.613922 355.214844 82.181656 L 355.214844 62.005859 C 354.329437 60.495453 353.203125 59.317047 351.835938 58.470703 C 350.481781 57.63736 348.880188 57.220703 347.03125 57.220703 C 343.893219 57.220703 341.608063 58.613922 340.175781 61.400391 C 338.7435 64.186859 338.027344 67.819672 338.027344 72.298813 Z M 401.035156 96.595688 C 394.186188 96.595688 388.710938 94.401703 384.609375 90.013672 C 380.507813 85.61264 378.457031 80.026703 378.457031 73.255859 L 378.457031 71.498062 C 378.457031 64.440765 380.397156 58.626953 384.277344 54.056641 C 388.157532 49.486328 393.365875 47.220703 399.902344 47.259766 C 406.321625 47.259766 411.302094 49.186859 414.84375 53.041016 C 418.385406 56.908203 420.15625 62.142578 420.15625 68.744141 L 420.15625 75.716782 L 391.777344 75.716782 L 391.679688 75.990219 C 391.914063 79.12825 392.96225 81.70639 394.824219 83.724609 C 396.686188 85.742828 399.21225 86.751953 402.402344 86.751953 C 405.240906 86.751953 407.597656 86.4655 409.472656 85.892578 C 411.347656 85.319656 413.398438 84.421234 415.625 83.19725 L 419.101563 91.107422 C 417.135406 92.656906 414.596344 93.959 411.484375 95.013672 C 408.359375 96.068375 404.876312 96.595688 401.035156 96.595688 Z M 399.902344 57.142578 C 397.532562 57.142578 395.657562 58.047516 394.277344 59.857422 C 392.897125 61.680328 392.044281 64.069672 391.71875 67.025391 L 391.855469 67.240234 L 407.597656 67.240234 L 407.597656 66.107422 C 407.597656 63.373047 406.959625 61.198578 405.683594 59.583984 C 404.407562 57.95639 402.480469 57.142578 399.902344 57.142578 Z M 445.820313 48.119141 L 445.820313 55.873047 L 441.347656 56.693359 L 447.617188 77.962891 L 448.457031 82.455093 L 448.730469 82.455093 L 449.648438 77.962891 L 455.839844 56.732422 L 451.269531 55.873047 L 451.269531 48.119141 L 472.851563 48.119141 L 472.851563 55.873047 L 468.710938 56.517578 L 454.707031 95.677719 L 442.441406 95.677719 L 428.378906 56.517578 L 424.238281 55.873047 L 424.238281 48.119141 Z"/>
        <g id="g3">
            <path id="path1" fill="#343434" stroke="none" d="M 34.003906 57.181641 L 27.148438 55.873047 L 27.148438 48.119141 L 45.917969 48.119141 L 46.445313 54.408203 C 47.96875 52.129547 49.882813 50.365234 52.1875 49.115234 C 54.47916 47.878265 57.13541 47.259766 60.15625 47.259766 L 60.15625 47.259766 C 63.203125 47.259766 65.807281 47.930328 67.96875 49.271484 C 70.143219 50.625641 71.783852 52.663422 72.890625 55.384766 L 72.890625 55.384766 C 74.361969 52.832672 76.269531 50.840485 78.613281 49.408203 C 80.957031 47.975922 83.710938 47.259766 86.875 47.259766 L 86.875 47.259766 C 91.5625 47.259766 95.260414 48.874359 97.96875 52.103516 C 100.677086 55.345703 102.03125 60.274078 102.03125 66.888672 L 102.03125 66.888672 L 102.03125 86.673813 L 108.222656 87.982437 L 108.222656 95.677719 L 83.671875 95.677719 L 83.671875 87.982437 L 89.199219 86.673813 L 89.199219 66.849609 C 89.199219 63.242828 88.613281 60.736328 87.441406 59.330078 C 86.269531 57.923828 84.524742 57.220703 82.207031 57.220703 L 82.207031 57.220703 C 80.397125 57.220703 78.828125 57.624359 77.5 58.431641 C 76.158844 59.238922 75.091156 60.358734 74.296875 61.791016 L 74.296875 61.791016 C 74.296875 62.350922 74.316406 62.826172 74.355469 63.216797 C 74.3815 63.620453 74.394531 64.024078 74.394531 64.427734 L 74.394531 64.427734 L 74.394531 86.673813 L 79.570313 87.982437 L 79.570313 95.677719 L 56.425781 95.677719 L 56.425781 87.982437 L 61.601563 86.673813 L 61.601563 66.849609 C 61.601563 63.333984 61.015625 60.853516 59.84375 59.408203 C 58.671875 57.94986 56.914063 57.220703 54.570313 57.220703 L 54.570313 57.220703 C 52.851563 57.220703 51.334629 57.552734 50.019531 58.216797 C 48.717442 58.867828 47.643223 59.798828 46.796875 61.009766 L 46.796875 61.009766 L 46.796875 86.673813 L 52.324219 87.982437 L 52.324219 95.677719 L 27.8125 95.677719 L 27.8125 87.982437 L 34.003906 86.673813 Z M 112.714844 73.216782 L 112.714844 72.298813 C 112.714844 64.798828 114.348961 58.750641 117.617188 54.154297 C 120.885406 49.557953 125.46225 47.259766 131.347656 47.259766 L 131.347656 47.259766 C 134.016937 47.259766 136.360687 47.852203 138.378906 49.037109 C 140.397125 50.222015 142.122406 51.908203 143.554688 54.095703 L 143.554688 54.095703 L 144.492188 48.119141 L 155.644531 48.119141 L 155.644531 94.271469 C 155.644531 100.534515 153.678375 105.534515 149.746094 109.271484 C 145.800781 113.008453 140.384125 114.876953 133.496094 114.876953 L 133.496094 114.876953 C 131.10025 114.876953 128.554688 114.551422 125.859383 113.900391 C 123.164063 113.236328 120.670563 112.331375 118.378906 111.185547 L 118.378906 111.185547 L 120.761719 102.181641 C 122.806 103.067062 124.856781 103.763657 126.91407 104.271484 C 128.958344 104.779297 131.126312 105.033203 133.417969 105.033203 L 133.417969 105.033203 C 136.542969 105.033203 138.886719 104.082657 140.449219 102.181641 C 141.998688 100.280609 142.773438 97.630844 142.773438 94.232437 L 142.773438 94.232437 L 142.773438 91.107422 C 141.367188 92.891266 139.713547 94.251953 137.8125 95.189438 C 135.898438 96.126968 133.710938 96.595688 131.25 96.595688 L 131.25 96.595688 C 125.429688 96.595688 120.885406 94.453766 117.617188 90.169922 C 114.348961 85.873062 112.714844 80.222 112.714844 73.216782 Z M 125.546875 72.298813 L 125.546875 73.216782 C 125.546875 77.383453 126.25 80.658218 127.65625 83.041 C 129.0625 85.436844 131.347656 86.634781 134.511719 86.634781 L 134.511719 86.634781 C 136.477875 86.634781 138.138031 86.270172 139.492188 85.541031 C 140.859375 84.824844 141.953125 83.776703 142.773438 82.3965 L 142.773438 82.3965 L 142.773438 61.751953 C 141.953125 60.319672 140.859375 59.20639 139.492188 58.412109 C 138.138031 57.617828 136.503906 57.220703 134.589844 57.220703 L 134.589844 57.220703 C 131.464844 57.220703 129.173187 58.613922 127.714844 61.400391 C 126.269531 64.186859 125.546875 67.819672 125.546875 72.298813 Z M 168.828125 36.166016 L 161.972656 34.857422 L 161.972656 27.123047 L 181.621094 27.123047 L 181.621094 66.849609 L 184.472656 66.849609 L 191.855469 56.439453 L 187.675781 55.873047 L 187.675781 48.119141 L 211.054688 48.119141 L 211.054688 55.873047 L 205.429688 57.142578 L 196.875 68.919922 L 208.867188 86.986328 L 213.75 87.982437 L 213.75 95.677719 L 191.777344 95.677719 L 191.777344 87.982437 L 194.414063 87.55275 L 187.109375 75.775406 L 181.621094 75.775406 L 181.621094 86.673813 L 187.148438 87.982437 L 187.148438 95.677719 L 162.636719 95.677719 L 162.636719 87.982437 L 168.828125 86.673813 Z M 256.894531 52.650391 L 257.03125 64.466797 L 248.417969 64.466797 L 247.050781 58.548828 C 246.178375 57.845703 245.071625 57.259766 243.730469 56.791016 C 242.402344 56.322266 240.930984 56.087891 239.316406 56.087891 L 239.316406 56.087891 C 237.063812 56.087891 235.279953 56.589203 233.964844 57.591797 C 232.636719 58.607422 231.972656 59.876953 231.972656 61.400391 L 231.972656 61.400391 C 231.972656 62.832672 232.604156 64.024078 233.867188 64.974609 C 235.130219 65.92514 237.649734 66.771484 241.425781 67.513672 L 241.425781 67.513672 C 247.311188 68.685547 251.679688 70.404297 254.531265 72.669907 C 257.369781 74.948563 258.789063 78.073578 258.789063 82.044922 L 258.789063 82.044922 C 258.789063 86.328766 256.953125 89.824875 253.281235 92.533188 C 249.596344 95.241531 244.752594 96.595688 238.75 96.595688 L 238.75 96.595688 C 235.091156 96.595688 231.731766 96.061844 228.671875 94.994141 C 225.598969 93.926422 222.877594 92.396484 220.507813 90.404297 L 220.507813 90.404297 L 220.371094 79.720703 L 229.335938 79.720703 L 231.113281 85.931656 C 231.868484 86.569656 232.903656 87.044922 234.21875 87.357422 C 235.546875 87.656906 236.927094 87.806625 238.359375 87.806625 L 238.359375 87.806625 C 240.963531 87.806625 242.949219 87.337906 244.316406 86.400375 C 245.670578 85.462891 246.347656 84.193375 246.347656 82.591797 L 246.347656 82.591797 C 246.347656 81.185547 245.664063 79.968109 244.296875 78.939453 C 242.916656 77.910797 240.377609 76.999359 236.679688 76.205063 L 236.679688 76.205063 C 231.080719 75.059219 226.855469 73.366547 224.003906 71.126953 C 221.152344 68.88736 219.726563 65.833984 219.726563 61.966797 L 219.726563 61.966797 C 219.726563 57.982422 221.367188 54.551422 224.648438 51.673828 C 227.929688 48.783203 232.597656 47.337891 238.652344 47.337891 L 238.652344 47.337891 C 242.35025 47.337891 245.846344 47.832672 249.140625 48.822266 C 252.434906 49.82486 255.019547 51.100922 256.894531 52.650391 Z M 289.023438 101.166031 L 262.304688 31.693359 L 274.960938 31.693359 L 301.679688 101.166031 Z M 317.753906 84.427734 L 317.753906 95.677719 L 304.980469 95.677719 L 304.980469 84.427734 Z M 356.914063 95.677719 L 355.957031 89.876938 C 354.459656 92.077484 352.695313 93.744156 350.664063 94.876968 C 348.619781 96.022812 346.295563 96.595688 343.691406 96.595688 L 343.691406 96.595688 C 337.832031 96.595688 333.28125 94.460297 330.039063 90.189453 C 326.809906 85.905609 325.195313 80.248047 325.195313 73.216782 L 325.195313 73.216782 L 325.195313 72.298813 C 325.195313 64.798828 326.822906 58.750641 330.078125 54.154297 C 333.320313 49.557953 337.890625 47.259766 343.789063 47.259766 L 343.789063 47.259766 C 346.158875 47.259766 348.294281 47.774078 350.195313 48.802734 C 352.096344 49.844391 353.769531 51.315765 355.214844 53.216797 L 355.214844 53.216797 L 355.214844 36.166016 L 348.359375 34.857422 L 348.359375 27.123047 L 355.214844 27.123047 L 368.046875 27.123047 L 368.046875 86.673813 L 374.199219 87.982437 L 374.199219 95.677719 Z M 338.027344 72.298813 L 338.027344 73.216782 C 338.027344 77.383453 338.723969 80.658218 340.117188 83.041 C 341.510406 85.436844 343.789063 86.634781 346.953125 86.634781 L 346.953125 86.634781 C 348.828125 86.634781 350.449219 86.250656 351.816406 85.482407 C 353.196625 84.714188 354.329437 83.613922 355.214844 82.181656 L 355.214844 82.181656 L 355.214844 62.005859 C 354.329437 60.495453 353.203125 59.317047 351.835938 58.470703 C 350.481781 57.63736 348.880188 57.220703 347.03125 57.220703 L 347.03125 57.220703 C 343.893219 57.220703 341.608063 58.613922 340.175781 61.400391 C 338.7435 64.186859 338.027344 67.819672 338.027344 72.298813 Z M 401.035156 96.595688 L 401.035156 96.595688 C 394.186188 96.595688 388.710938 94.401703 384.609375 90.013672 C 380.507813 85.61264 378.457031 80.026703 378.457031 73.255859 L 378.457031 73.255859 L 378.457031 71.498062 C 378.457031 64.440765 380.397156 58.626953 384.277344 54.056641 C 388.157532 49.486328 393.365875 47.220703 399.902344 47.259766 L 399.902344 47.259766 C 406.321625 47.259766 411.302094 49.186859 414.84375 53.041016 C 418.385406 56.908203 420.15625 62.142578 420.15625 68.744141 L 420.15625 68.744141 L 420.15625 75.716782 L 391.777344 75.716782 L 391.679688 75.990219 C 391.914063 79.12825 392.96225 81.70639 394.824219 83.724609 C 396.686188 85.742828 399.21225 86.751953 402.402344 86.751953 L 402.402344 86.751953 C 405.240906 86.751953 407.597656 86.4655 409.472656 85.892578 C 411.347656 85.319656 413.398438 84.421234 415.625 83.19725 L 415.625 83.19725 L 419.101563 91.107422 C 417.135406 92.656906 414.596344 93.959 411.484375 95.013672 C 408.359375 96.068375 404.876312 96.595688 401.035156 96.595688 Z M 399.902344 57.142578 L 399.902344 57.142578 C 397.532562 57.142578 395.657562 58.047516 394.277344 59.857422 C 392.897125 61.680328 392.044281 64.069672 391.71875 67.025391 L 391.71875 67.025391 L 391.855469 67.240234 L 407.597656 67.240234 L 407.597656 66.107422 C 407.597656 63.373047 406.959625 61.198578 405.683594 59.583984 C 404.407562 57.95639 402.480469 57.142578 399.902344 57.142578 Z M 445.820313 48.119141 L 445.820313 55.873047 L 441.347656 56.693359 L 447.617188 77.962891 L 448.457031 82.455093 L 448.730469 82.455093 L 449.648438 77.962891 L 455.839844 56.732422 L 451.269531 55.873047 L 451.269531 48.119141 L 472.851563 48.119141 L 472.851563 55.873047 L 468.710938 56.517578 L 454.707031 95.677719 L 442.441406 95.677719 L 428.378906 56.517578 L 424.238281 55.873047 L 424.238281 48.119141 Z"/>
        </g>
    </g>
</svg>
